<svg width="28" height="28" viewBox="0 0 28 28" fill="none" xmlns="http://www.w3.org/2000/svg">
<path d="M20.7008 6.17152C20.8261 6.16958 20.9506 6.19285 21.0667 6.23992C21.1829 6.287 21.2885 6.35692 21.3771 6.44556C21.4657 6.5342 21.5357 6.63974 21.5827 6.75591C21.6298 6.87209 21.6531 6.99654 21.6511 7.12187L21.6681 18.6449C21.6676 18.769 21.6417 18.8918 21.5921 19.0056C21.5425 19.1194 21.4702 19.2219 21.3796 19.3067C21.2934 19.4014 21.1886 19.4773 21.0719 19.5299C20.9551 19.5824 20.8288 19.6104 20.7008 19.6122C20.4474 19.6022 20.2072 19.497 20.0279 19.3178C19.8486 19.1385 19.7435 18.8982 19.7335 18.6449L19.7335 9.44684L7.80315 21.3771C7.62311 21.5572 7.37894 21.6583 7.12433 21.6583C6.86972 21.6583 6.62554 21.5572 6.4455 21.3771C6.26547 21.1971 6.16432 20.9529 6.16433 20.6983C6.16433 20.4437 6.26547 20.1995 6.4455 20.0195L18.3758 8.0892L9.17776 8.0892C8.92122 8.0892 8.67517 7.98728 8.49376 7.80588C8.31236 7.62447 8.21044 7.37843 8.21044 7.12188C8.21044 6.86533 8.31236 6.61928 8.49376 6.43788C8.67517 6.25647 8.92121 6.15455 9.17776 6.15455L20.7008 6.17152Z" fill="white"/>
</svg>
