<svg width="14" height="14" viewBox="0 0 14 14" fill="none" xmlns="http://www.w3.org/2000/svg">
<path d="M12.9756 2.601L9.0054 6.54563L12.9756 10.4903C13.0474 10.3403 13.0909 10.1744 13.0909 9.99734V3.09393C13.0909 2.91682 13.0474 2.75101 12.9756 2.601ZM11.9403 1.94336H1.15057C0.973457 1.94336 0.807648 1.9869 0.657639 2.05867L5.73198 7.10744C6.18065 7.55611 6.91026 7.55611 7.35893 7.10744L12.4333 2.05867C12.2833 1.9869 12.1175 1.94336 11.9403 1.94336ZM0.115313 2.601C0.0435426 2.75101 0 2.91682 0 3.09393V9.99734C0 10.1744 0.0435426 10.3403 0.115313 10.4903L4.08551 6.54563L0.115313 2.601Z" fill="white"/>
<path d="M8.46363 7.08789L7.90182 7.6497C7.15423 8.39729 5.93778 8.39729 5.19019 7.6497L4.6284 7.08789L0.658203 11.0325C0.808212 11.1043 0.974021 11.1478 1.15113 11.1478H11.9409C12.118 11.1478 12.2838 11.1043 12.4338 11.0325L8.46363 7.08789Z" fill="white"/>
</svg>
