<svg width="14" height="14" viewBox="0 0 14 14" fill="none" xmlns="http://www.w3.org/2000/svg">
<path d="M6.5459 0.40918C5.35242 0.40918 4.20783 0.883286 3.36392 1.7272C2.52 2.57111 2.0459 3.71571 2.0459 4.90918C2.0459 7.286 6.05499 12.3137 6.22681 12.5305C6.26514 12.5783 6.31371 12.6169 6.36894 12.6434C6.42417 12.6699 6.48464 12.6836 6.5459 12.6836C6.60715 12.6836 6.66763 12.6699 6.72286 12.6434C6.77808 12.6169 6.82666 12.5783 6.86499 12.5305C7.03681 12.3137 11.0459 7.286 11.0459 4.90918C11.0459 3.71571 10.5718 2.57111 9.72788 1.7272C8.88397 0.883286 7.73937 0.40918 6.5459 0.40918ZM6.5459 6.13645C6.22226 6.13645 5.90588 6.04048 5.63678 5.86067C5.36769 5.68087 5.15795 5.4253 5.0341 5.1263C4.91024 4.82729 4.87784 4.49827 4.94098 4.18085C5.00412 3.86343 5.15997 3.57185 5.38881 3.343C5.61766 3.11416 5.90924 2.95831 6.22666 2.89517C6.54408 2.83203 6.8731 2.86443 7.17211 2.98829C7.47111 3.11214 7.72668 3.32188 7.90649 3.59097C8.08629 3.86007 8.18226 4.17645 8.18226 4.50009C8.18226 4.93408 8.00986 5.35029 7.70298 5.65717C7.3961 5.96405 6.97989 6.13645 6.5459 6.13645Z" fill="white"/>
</svg>
