<svg width="14" height="14" viewBox="0 0 14 14" fill="none" xmlns="http://www.w3.org/2000/svg">
<g clip-path="url(#clip0_25_2192)">
<path d="M6.54545 0C10.1605 0 13.0909 2.9304 13.0909 6.54545C13.0909 10.1605 10.1605 13.0909 6.54545 13.0909C2.9304 13.0909 0 10.1605 0 6.54545C0 2.9304 2.9304 0 6.54545 0ZM5.93673 3.65302C5.81556 3.65302 5.69935 3.70115 5.61367 3.78683C5.52799 3.87251 5.47985 3.98872 5.47985 4.10989V7.76291C5.47985 8.01556 5.68407 8.21978 5.93673 8.21978H9.58975C9.65115 8.22211 9.7124 8.21202 9.76982 8.19012C9.82724 8.16823 9.87965 8.13497 9.92392 8.09235C9.96819 8.04973 10.0034 7.99861 10.0275 7.94206C10.0515 7.88551 10.0639 7.82469 10.0639 7.76324C10.0639 7.70178 10.0515 7.64096 10.0275 7.58441C10.0034 7.52786 9.96819 7.47675 9.92392 7.43412C9.87965 7.3915 9.82724 7.35824 9.76982 7.33635C9.7124 7.31445 9.65115 7.30437 9.58975 7.30669H6.39295V4.10989C6.39295 3.98883 6.3449 3.87273 6.25936 3.78706C6.17382 3.7014 6.05778 3.65319 5.93673 3.65302Z" fill="white"/>
</g>
<defs>
<clipPath id="clip0_25_2192">
<rect width="13.0909" height="13.0909" fill="white"/>
</clipPath>
</defs>
</svg>
