<svg width="17" height="17" viewBox="0 0 17 17" fill="none" xmlns="http://www.w3.org/2000/svg">
<path d="M7.4198 2.62001C8.41663 2.62001 9.39106 2.9156 10.2199 3.4694C11.0487 4.02321 11.6947 4.81035 12.0762 5.7313C12.4577 6.65224 12.5575 7.66563 12.363 8.64329C12.1685 9.62096 11.6885 10.519 10.9836 11.2239C10.2788 11.9287 9.38073 12.4087 8.40306 12.6032C7.42539 12.7977 6.41201 12.6979 5.49107 12.3164C4.57012 11.9349 3.78298 11.289 3.22917 10.4601C2.67537 9.6313 2.37977 8.65686 2.37977 7.66003C2.37977 6.32334 2.91078 5.04138 3.85596 4.0962C4.80115 3.15101 6.0831 2.62001 7.4198 2.62001ZM7.4198 1.5C6.20146 1.5 5.01048 1.86128 3.99747 2.53815C2.98446 3.21503 2.19491 4.17709 1.72867 5.30269C1.26243 6.42829 1.14045 7.66687 1.37813 8.8618C1.61582 10.0567 2.2025 11.1543 3.064 12.0158C3.9255 12.8773 5.02311 13.464 6.21804 13.7017C7.41297 13.9394 8.65155 13.8174 9.77715 13.3512C10.9027 12.8849 11.8648 12.0954 12.5417 11.0824C13.2186 10.0694 13.5798 8.87837 13.5798 7.66003C13.5798 6.02629 12.9308 4.45946 11.7756 3.30423C10.6204 2.149 9.05355 1.5 7.4198 1.5Z" fill="#E21421"/>
<path d="M15.1812 15.4999C15.1071 15.4996 15.0338 15.4846 14.9655 15.4557C14.8973 15.4269 14.8354 15.3848 14.7836 15.3319L11.4627 11.9718C11.4045 11.9212 11.3574 11.8591 11.3243 11.7894C11.2912 11.7197 11.2728 11.6439 11.2704 11.5668C11.268 11.4896 11.2815 11.4128 11.3102 11.3412C11.3389 11.2696 11.382 11.2046 11.437 11.1504C11.4919 11.0963 11.5575 11.054 11.6295 11.0264C11.7016 10.9987 11.7785 10.9863 11.8556 10.9898C11.9327 10.9933 12.0082 11.0127 12.0775 11.0468C12.1467 11.0809 12.2081 11.1289 12.2579 11.1878L15.5788 14.5479C15.6558 14.6265 15.708 14.7261 15.7288 14.8342C15.7496 14.9423 15.738 15.0541 15.6956 15.1557C15.6532 15.2573 15.5817 15.3441 15.4902 15.4053C15.3988 15.4665 15.2912 15.4994 15.1812 15.4999ZM7.38032 11.0198C7.23179 11.0198 7.08935 10.9608 6.98433 10.8558C6.87931 10.7508 6.82031 10.6084 6.82031 10.4598V4.85981C6.82031 4.71129 6.87931 4.56885 6.98433 4.46383C7.08935 4.3588 7.23179 4.2998 7.38032 4.2998C7.52884 4.2998 7.67128 4.3588 7.7763 4.46383C7.88132 4.56885 7.94032 4.71129 7.94032 4.85981V10.4598C7.94032 10.6084 7.88132 10.7508 7.7763 10.8558C7.67128 10.9608 7.52884 11.0198 7.38032 11.0198Z" fill="#E21421"/>
<path d="M10.1815 8.2201H4.58149C4.43297 8.2201 4.29053 8.1611 4.18551 8.05608C4.08048 7.95106 4.02148 7.80862 4.02148 7.6601C4.02148 7.51158 4.08048 7.36914 4.18551 7.26412C4.29053 7.1591 4.43297 7.1001 4.58149 7.1001H10.1815C10.33 7.1001 10.4725 7.1591 10.5775 7.26412C10.6825 7.36914 10.7415 7.51158 10.7415 7.6601C10.7415 7.80862 10.6825 7.95106 10.5775 8.05608C10.4725 8.1611 10.33 8.2201 10.1815 8.2201Z" fill="#E21421"/>
</svg>
