<svg width="44" height="44" viewBox="0 0 44 44" fill="none" xmlns="http://www.w3.org/2000/svg">
<path d="M21.981 3.66553C11.861 3.66553 3.66602 11.8789 3.66602 21.9989C3.66602 32.1189 11.861 40.3322 21.981 40.3322C32.1193 40.3322 40.3327 32.1189 40.3327 21.9989C40.3327 11.8789 32.1193 3.66553 21.981 3.66553ZM21.9993 36.6655C13.896 36.6655 7.33268 30.1022 7.33268 21.9989C7.33268 13.8955 13.896 7.33219 21.9993 7.33219C30.1027 7.33219 36.666 13.8955 36.666 21.9989C36.666 30.1022 30.1027 36.6655 21.9993 36.6655ZM22.916 12.8322H20.166V23.8322L29.791 29.6072L31.166 27.3522L22.916 22.4572V12.8322Z" fill="#2E5D3B"/>
</svg>
