<svg width="44" height="44" viewBox="0 0 44 44" fill="none" xmlns="http://www.w3.org/2000/svg">
<path d="M22 19.25C23.5188 19.25 24.75 18.0188 24.75 16.5C24.75 14.9812 23.5188 13.75 22 13.75C20.4812 13.75 19.25 14.9812 19.25 16.5C19.25 18.0188 20.4812 19.25 22 19.25Z" fill="#2E5D3B"/>
<path d="M22 4.25C28.8169 4.25 34.25 9.5405 34.25 15.8984C34.25 18.9624 32.83 23.2782 29.7666 28.8164C27.3199 33.2323 24.4767 37.2409 22.9971 39.2412L22.9932 39.2461C22.8791 39.4017 22.7297 39.5289 22.5576 39.6162C22.3857 39.7033 22.1956 39.749 22.0029 39.749C21.81 39.749 21.6194 39.7034 21.4473 39.6162C21.2751 39.5289 21.1258 39.4018 21.0117 39.2461L21.0068 39.2402L20.3916 38.3994C18.8223 36.2328 16.3804 32.6808 14.2393 28.8164C11.1705 23.2763 9.75 18.9606 9.75 15.8984C9.75 9.5405 15.1831 4.25 22 4.25ZM24.6787 10.0332C23.3997 9.50343 21.9925 9.36476 20.6348 9.63477C19.2769 9.90486 18.0288 10.5708 17.0498 11.5498C16.0708 12.5288 15.4049 13.7769 15.1348 15.1348C14.8648 16.4925 15.0034 17.8997 15.5332 19.1787C16.063 20.4578 16.9602 21.5512 18.1113 22.3203C19.2624 23.0894 20.6156 23.5 22 23.5H22.002C23.8573 23.4979 25.6363 22.7602 26.9482 21.4482C28.1782 20.2183 28.9036 18.5777 28.9912 16.8486L29 16.502V16.5C29 15.1156 28.5894 13.7624 27.8203 12.6113C27.0512 11.4602 25.9578 10.563 24.6787 10.0332Z" stroke="#2E5D3B" stroke-width="3"/>
</svg>
