<svg width="44" height="44" viewBox="0 0 44 44" fill="none" xmlns="http://www.w3.org/2000/svg">
<path d="M40.3326 31.0195V36.5195C40.3347 37.0301 40.2301 37.5355 40.0256 38.0033C39.821 38.4712 39.521 38.8911 39.1448 39.2363C38.7685 39.5815 38.3244 39.8442 37.8407 40.0078C37.357 40.1714 36.8445 40.2322 36.336 40.1862C30.6945 39.5732 25.2755 37.6455 20.5143 34.5579C16.0847 31.7431 12.3291 27.9875 9.51431 23.5579C6.41593 18.7751 4.48775 13.3297 3.88597 7.66286C3.84016 7.15588 3.90041 6.64492 4.06289 6.1625C4.22537 5.68009 4.48652 5.23679 4.82971 4.86083C5.1729 4.48487 5.59062 4.18449 6.05626 3.97882C6.5219 3.77314 7.02527 3.66667 7.53431 3.66619H13.0343C13.924 3.65744 14.7866 3.9725 15.4612 4.55267C16.1358 5.13284 16.5764 5.93851 16.701 6.81953C16.9331 8.57965 17.3636 10.3079 17.9843 11.9712C18.231 12.6274 18.2844 13.3405 18.1381 14.0261C17.9919 14.7117 17.6522 15.3411 17.1593 15.8395L14.831 18.1679C17.4408 22.7577 21.2411 26.558 25.831 29.1679L28.1593 26.8395C28.6578 26.3466 29.2871 26.0069 29.9727 25.8607C30.6583 25.7145 31.3714 25.7679 32.0276 26.0145C33.691 26.6352 35.4192 27.0657 37.1793 27.2979C38.0699 27.4235 38.8832 27.8721 39.4646 28.5583C40.046 29.2445 40.355 30.1204 40.3326 31.0195Z" stroke="#2E5D3B" stroke-width="3" stroke-linecap="round" stroke-linejoin="round"/>
</svg>
