<svg width="18" height="22" viewBox="0 0 18 22" fill="none" xmlns="http://www.w3.org/2000/svg">
<path d="M13.0186 16.585C13.1097 16.181 13.511 15.9275 13.915 16.0186C14.8646 16.2325 15.6958 16.5137 16.3086 16.8643C16.8679 17.1842 17.5 17.7127 17.5 18.5039C17.5 19.2008 17.0041 19.6923 16.5361 20.0029C16.0393 20.3327 15.3695 20.601 14.6094 20.8145C13.0788 21.2442 11.0074 21.5 8.75 21.5C6.49265 21.5 4.42123 21.2442 2.89062 20.8145C2.13052 20.601 1.46075 20.3327 0.963867 20.0029C0.495934 19.6923 0 19.2008 0 18.5039C4.97766e-05 17.7127 0.632114 17.1842 1.19141 16.8643C1.80419 16.5137 2.63545 16.2325 3.58496 16.0186C3.98896 15.9275 4.39031 16.181 4.48145 16.585C4.57245 16.989 4.31898 17.3903 3.91504 17.4814C3.03573 17.6795 2.36644 17.9201 1.93652 18.166C1.63779 18.3369 1.54262 18.4575 1.5127 18.5049C1.5389 18.5454 1.60915 18.6309 1.79297 18.7529C2.10577 18.9605 2.60827 19.177 3.2959 19.3701C4.66077 19.7533 6.58946 20 8.75 20C10.9105 20 12.8392 19.7533 14.2041 19.3701C14.8917 19.177 15.3942 18.9605 15.707 18.7529C15.8902 18.6313 15.9599 18.5456 15.9863 18.5049C15.9561 18.4572 15.8613 18.3364 15.5635 18.166C15.1336 17.9201 14.4643 17.6795 13.585 17.4814C13.181 17.3903 12.9275 16.989 13.0186 16.585ZM8.75 0C11.7995 0.000198039 14.6991 1.85564 15.9102 4.76562C17.0356 7.47161 16.4249 9.78377 15.1611 11.7529C14.2398 13.1883 12.9406 14.4851 11.7139 15.6553L10.5273 16.7842C10.05 17.2435 9.41245 17.5009 8.75 17.501C8.08767 17.5009 7.45099 17.2433 6.97363 16.7842L6.97168 16.7822C5.47257 15.3297 3.57189 13.6634 2.34277 11.7529C1.07723 9.78565 0.464181 7.47559 1.59082 4.76562L1.70996 4.49609C2.98475 1.74098 5.79577 0.000188574 8.75 0ZM8.75 1.5C6.29201 1.5002 3.94946 3.00407 2.97559 5.34277C2.08472 7.48642 2.53293 9.27566 3.60449 10.9414C4.71214 12.663 6.42469 14.1637 8.01367 15.7031L8.09082 15.7715C8.27758 15.9191 8.50996 16.0009 8.75 16.001C9.02464 16.0008 9.28938 15.8936 9.4873 15.7031C11.0786 14.1704 12.7924 12.6664 13.8984 10.9434C14.9691 9.27526 15.4157 7.48238 14.5254 5.3418C13.5525 3.00425 11.208 1.5002 8.75 1.5ZM8.75 5C9.61195 5 10.4384 5.34266 11.0479 5.95215C11.6573 6.56164 12 7.38805 12 8.25C12 9.11195 11.6573 9.93836 11.0479 10.5479C10.4384 11.1573 9.61195 11.5 8.75 11.5C7.88805 11.5 7.06164 11.1573 6.45215 10.5479C5.84266 9.93836 5.5 9.11195 5.5 8.25C5.5 7.38805 5.84266 6.56164 6.45215 5.95215C7.06164 5.34266 7.88805 5 8.75 5ZM8.75 6.5C8.28587 6.5 7.84088 6.68451 7.5127 7.0127C7.18451 7.34088 7 7.78587 7 8.25C7 8.71413 7.18451 9.15912 7.5127 9.4873C7.84088 9.81549 8.28587 10 8.75 10C9.21413 10 9.65912 9.81549 9.9873 9.4873C10.3155 9.15912 10.5 8.71413 10.5 8.25C10.5 7.78587 10.3155 7.34088 9.9873 7.0127C9.65912 6.68451 9.21413 6.5 8.75 6.5Z" fill="black"/>
</svg>
